<svg width="512" height="512" viewBox="0 0 512 512" fill="none" xmlns="http://www.w3.org/2000/svg">
<path d="M448 373.333C448 417.516 362.039 453.333 256 453.333C149.961 453.333 64 417.516 64 373.333C64 329.151 149.961 293.333 256 293.333C362.039 293.333 448 329.151 448 373.333Z" fill="#2C425C"/>
<path fill-rule="evenodd" clip-rule="evenodd" d="M307.648 317.506C352.555 322.562 390.379 333.847 413.355 349.271C424.341 356.653 432 364.205 432 373.335C432 378.007 429.653 382.317 426.048 386.519C420.8 392.642 413.056 398.189 403.435 403.287C370.197 420.909 316.48 432.002 256 432.002C195.52 432.002 141.803 420.909 108.565 403.287C98.944 398.189 91.2 392.642 85.952 386.519C82.3467 382.317 80 378.007 80 373.335C80 364.205 87.68 356.653 98.6667 349.271C121.664 333.847 159.509 322.541 204.459 317.485C213.227 316.503 219.563 308.589 218.56 299.799C217.579 291.031 209.664 284.695 200.875 285.698C149.76 291.437 106.987 305.154 80.832 322.69C59.0507 337.303 48 355.245 48 373.335C48 390.061 57.3227 406.551 75.84 420.439C109.653 445.783 177.557 464.002 256 464.002C334.443 464.002 402.347 445.783 436.16 420.439C454.677 406.551 464 390.061 464 373.335C464 355.245 452.949 337.325 431.189 322.711C405.056 305.175 362.304 291.458 311.232 285.698C302.443 284.717 294.528 291.031 293.547 299.821C292.544 308.589 298.88 316.525 307.648 317.506Z" fill="#FB9824"/>
<path fill-rule="evenodd" clip-rule="evenodd" d="M240.005 249.408C191.664 241.728 154.672 199.829 154.672 149.333C154.672 93.3973 200.069 48 256.005 48C311.941 48 357.338 93.3973 357.338 149.333C357.338 199.829 320.346 241.728 272.005 249.408V373.333C272.005 382.165 264.837 389.333 256.005 389.333C247.173 389.333 240.005 382.165 240.005 373.333V249.408ZM256.005 218.667C294.277 218.667 325.338 187.605 325.338 149.333C325.338 111.061 294.277 80 256.005 80C217.733 80 186.672 111.061 186.672 149.333C186.672 187.605 217.733 218.667 256.005 218.667Z" fill="#FB9824"/>
</svg>
